<?xml version="1.0" standalone="no"?>
<!DOCTYPE svg PUBLIC "-//W3C//DTD SVG 20010904//EN"
 "http://www.w3.org/TR/2001/REC-SVG-20010904/DTD/svg10.dtd">
<svg version="1.0" xmlns="http://www.w3.org/2000/svg"
 width="300.000000pt" height="203.000000pt" viewBox="0 0 300.000000 203.000000"
 preserveAspectRatio="xMidYMid meet">
<metadata>
Created by potrace 1.10, written by Peter Selinger 2001-2011
</metadata>
<g transform="translate(0.000000,203.000000) scale(0.100000,-0.100000)"
fill="#000000" stroke="none">
<path d="M1834 2018 c-24 -11 -61 -71 -85 -137 -16 -44 -18 -45 -78 -57 -76
-16 -149 -55 -201 -107 -72 -73 -150 -254 -150 -347 l0 -32 -40 35 c-86 79
-188 108 -226 66 -29 -32 -24 -118 10 -169 14 -22 26 -41 26 -42 0 -2 -15 -3
-32 -3 -18 0 -42 -4 -53 -8 -19 -6 -20 -3 -16 78 4 104 -19 163 -74 189 -46
22 -77 13 -129 -40 -81 -81 -128 -189 -146 -336 -13 -110 0 -239 31 -322 10
-28 17 -51 15 -53 -8 -8 -74 22 -99 46 -15 14 -48 62 -74 106 -25 44 -63 110
-84 146 -21 36 -58 84 -83 107 -38 35 -52 42 -86 42 -44 0 -77 -13 -97 -39
-37 -48 9 -215 92 -341 27 -41 90 -116 140 -166 147 -149 272 -217 392 -213
62 2 63 2 115 -47 63 -60 118 -93 213 -129 64 -25 83 -27 225 -28 190 -2 246
10 495 99 278 100 413 171 575 303 171 138 268 239 351 366 73 111 86 145 69
185 -18 43 -84 64 -259 82 -20 3 -27 15 -50 84 -27 84 -75 171 -128 233 -38
45 -168 137 -217 154 -31 11 -41 24 -81 105 -31 65 -61 110 -99 148 -50 49
-59 54 -98 53 -24 0 -53 -5 -64 -11z m131 -59 c34 -32 68 -79 94 -128 l40 -78
-67 1 c-49 1 -67 -3 -67 -12 0 -9 19 -14 60 -16 80 -4 145 -28 230 -86 86 -59
133 -107 180 -185 30 -51 75 -167 75 -195 0 -5 -25 -14 -56 -20 -34 -7 -54
-16 -51 -23 2 -7 15 -11 28 -9 13 2 74 3 134 4 178 2 265 -35 236 -98 -31 -68
-152 -238 -215 -300 -80 -79 -283 -244 -366 -296 -78 -50 -346 -160 -550 -226
-106 -35 -261 -54 -375 -46 -211 14 -356 98 -470 272 -15 23 -32 42 -36 42
-16 0 -9 -30 17 -72 l26 -41 -67 6 c-88 8 -168 46 -268 126 -79 64 -197 198
-242 275 -33 57 -75 181 -75 223 0 66 61 92 125 53 43 -27 71 -64 140 -190
105 -191 136 -223 222 -236 25 -4 43 -12 43 -19 0 -14 27 -28 39 -20 4 2 -5
30 -20 63 -16 32 -35 85 -44 117 -20 79 -20 268 1 349 33 128 130 266 187 266
78 0 105 -108 73 -290 -13 -72 -9 -99 12 -86 5 3 13 26 16 50 7 48 11 50 81
60 46 7 57 2 145 -68 48 -38 64 -46 73 -36 9 9 5 17 -18 33 -68 49 -173 164
-184 201 -14 54 -4 95 26 102 49 13 173 -68 220 -141 16 -25 36 -45 46 -45 21
0 21 9 2 34 -45 60 9 263 104 394 51 69 172 132 254 132 21 0 28 9 48 58 42
105 79 151 122 152 10 0 42 -23 72 -51z"/>
<path d="M1890 1956 c0 -2 8 -10 18 -17 15 -13 16 -12 3 4 -13 16 -21 21 -21
13z"/>
<path d="M1932 1850 c0 -14 2 -19 5 -12 2 6 2 18 0 25 -3 6 -5 1 -5 -13z"/>
<path d="M1791 1804 c0 -11 3 -14 6 -6 3 7 2 16 -1 19 -3 4 -6 -2 -5 -13z"/>
<path d="M1941 1784 c0 -11 3 -14 6 -6 3 7 2 16 -1 19 -3 4 -6 -2 -5 -13z"/>
<path d="M1986 1674 c-70 -28 -106 -59 -106 -89 0 -57 54 -59 177 -5 51 23
112 45 135 49 l43 9 -40 1 c-36 1 -70 -10 -241 -79 -30 -12 -59 10 -50 37 6
19 36 37 146 86 59 27 2 19 -64 -9z"/>
<path d="M2191 1599 c-77 -15 -251 -128 -280 -181 -19 -36 -11 -72 16 -76 21
-3 94 32 213 101 29 17 80 32 140 43 52 9 97 18 100 21 3 2 -32 2 -77 -2 -89
-6 -148 -23 -192 -54 -40 -29 -162 -91 -177 -91 -8 0 -14 10 -14 22 0 58 227
208 316 208 12 0 26 5 29 10 7 12 -12 11 -74 -1z"/>
<path d="M1458 1585 c-3 -3 -2 -22 1 -42 4 -25 12 -39 24 -41 16 -3 17 1 11
35 -9 51 -19 65 -36 48z"/>
<path d="M1416 1503 c-13 -13 -5 -30 19 -41 25 -12 42 -1 30 18 -9 15 -41 30
-49 23z"/>
<path d="M2310 1471 c-83 -16 -200 -105 -200 -152 0 -11 10 -24 24 -30 20 -10
38 -5 117 32 79 36 102 42 152 41 40 -1 56 2 51 9 -13 22 -137 4 -208 -30 -68
-32 -116 -40 -116 -18 0 21 71 83 127 111 36 18 69 26 105 27 39 0 48 3 33 9
-23 10 -37 10 -85 1z"/>
<path d="M1384 1438 c-10 -15 7 -28 37 -28 39 0 38 26 -1 32 -17 3 -33 1 -36
-4z"/>
<path d="M1501 1426 c-17 -21 -10 -56 15 -73 19 -12 24 -11 45 6 20 16 22 23
14 47 -12 33 -54 44 -74 20z m47 -34 c2 -7 -3 -12 -12 -12 -9 0 -16 7 -16 16
0 17 22 14 28 -4z"/>
<path d="M1370 1381 c0 -41 44 -94 96 -116 45 -19 111 -28 118 -17 3 6 -13 13
-36 17 -70 11 -128 45 -149 87 -19 37 -29 47 -29 29z"/>
<path d="M1621 1264 c-18 -13 -22 -23 -18 -47 2 -19 -1 -37 -9 -45 -36 -36 8
-102 57 -87 12 4 32 1 45 -6 30 -16 99 -1 99 21 0 10 -7 14 -20 11 -11 -2 -31
-5 -45 -5 -24 -1 -25 2 -23 46 l3 47 -38 3 c-42 3 -57 32 -22 43 12 4 19 12
17 18 -6 18 -21 18 -46 1z m52 -118 c-5 -24 -27 -37 -50 -29 -31 11 -4 53 33
53 17 0 20 -5 17 -24z"/>
<path d="M2553 1163 c9 -2 23 -2 30 0 6 3 -1 5 -18 5 -16 0 -22 -2 -12 -5z"/>
<path d="M2635 1150 c27 -12 43 -12 25 0 -8 5 -22 9 -30 9 -10 0 -8 -3 5 -9z"/>
<path d="M2451 1084 c0 -11 3 -14 6 -6 3 7 2 16 -1 19 -3 4 -6 -2 -5 -13z"/>
<path d="M867 1038 c-60 -92 -84 -211 -57 -282 12 -34 90 -74 90 -47 0 5 -10
11 -21 13 -38 5 -64 53 -62 111 2 65 22 121 67 192 39 59 41 65 27 65 -5 0
-25 -24 -44 -52z"/>
<path d="M2667 1061 c-4 -17 -3 -21 5 -13 5 5 8 16 6 23 -3 8 -7 3 -11 -10z"/>
<path d="M1767 1028 c-2 -18 -1 -55 4 -83 23 -134 23 -147 3 -143 -11 2 -20
13 -22 26 -4 26 -52 64 -101 81 -19 6 -81 11 -138 11 -82 0 -112 -4 -141 -19
-53 -27 -76 -56 -76 -97 0 -93 220 -210 354 -188 64 10 100 25 100 41 0 11 -6
13 -22 8 -51 -16 -166 -17 -219 -1 -69 20 -148 72 -172 113 -23 40 -10 65 51
95 38 18 57 20 153 16 63 -3 114 -9 121 -16 8 -8 15 -8 24 -1 13 10 15 7 49
-55 17 -31 41 -42 60 -26 13 11 15 24 11 59 -4 25 -9 83 -12 129 -6 85 -18
106 -27 50z"/>
<path d="M2463 1000 c0 -36 2 -50 4 -32 2 17 2 47 0 65 -2 17 -4 3 -4 -33z"/>
<path d="M2624 994 c-42 -52 -52 -75 -15 -34 31 34 55 70 48 70 -2 0 -17 -16
-33 -36z"/>
<path d="M1856 998 c-21 -30 -20 -41 4 -63 16 -15 26 -17 47 -9 37 13 50 37
35 68 -15 34 -64 36 -86 4z m60 -37 c-9 -14 -33 -14 -41 -1 -4 6 -1 18 6 26
11 13 14 13 27 0 8 -8 11 -19 8 -25z"/>
<path d="M1040 968 c-48 -33 -99 -132 -115 -225 -19 -102 -19 -133 -1 -133 10
0 17 16 21 48 21 155 50 229 108 278 97 82 145 -38 122 -303 -7 -72 -5 -83 8
-83 12 0 17 17 23 68 11 92 8 228 -5 278 -24 89 -92 119 -161 72z"/>
<path d="M250 910 c0 -5 18 -10 40 -10 30 0 47 -7 65 -25 22 -21 25 -33 25
-92 0 -48 3 -63 10 -53 15 23 12 108 -5 140 -8 16 -24 34 -34 40 -25 13 -101
13 -101 0z"/>
<path d="M2544 898 l-19 -23 23 19 c21 18 27 26 19 26 -2 0 -12 -10 -23 -22z"/>
<path d="M2476 897 c3 -10 9 -15 12 -12 3 3 0 11 -7 18 -10 9 -11 8 -5 -6z"/>
<path d="M1995 890 c-3 -5 13 -18 37 -30 51 -24 48 -24 48 -2 0 29 -70 55 -85
32z"/>
<path d="M1950 863 c0 -20 26 -73 35 -73 22 0 24 12 8 46 -14 29 -43 48 -43
27z"/>
<path d="M1892 808 c2 -24 8 -43 13 -43 6 0 11 19 13 43 3 33 0 42 -13 42 -13
0 -16 -9 -13 -42z"/>
<path d="M485 705 c-5 -2 -22 -6 -37 -9 -51 -11 -29 -23 24 -14 44 8 55 7 77
-10 25 -18 51 -72 68 -137 l7 -30 4 33 c5 47 -39 137 -77 156 -29 15 -45 18
-66 11z"/>
<path d="M1230 651 c0 -35 120 -68 206 -55 l59 8 -91 7 c-62 5 -104 14 -132
28 -23 12 -42 17 -42 12z"/>
<path d="M1720 561 c-5 -11 -10 -28 -10 -38 0 -31 83 -173 95 -161 3 3 -11 32
-30 64 -39 65 -50 96 -41 119 14 37 67 2 122 -81 37 -55 51 -70 60 -61 8 8
-95 144 -121 161 -33 22 -62 20 -75 -3z"/>
<path d="M1562 494 c-15 -10 -22 -25 -22 -47 0 -37 39 -125 63 -146 23 -19 22
-12 -13 54 -35 67 -40 125 -11 125 24 0 41 -17 92 -91 22 -32 44 -59 50 -59
11 0 9 5 -34 70 -31 47 -87 110 -97 110 -3 0 -16 -7 -28 -16z"/>
<path d="M1390 405 c-14 -17 -9 -51 15 -109 23 -54 31 -37 10 22 -33 92 7 111
62 30 17 -26 33 -53 36 -60 2 -7 7 -10 11 -6 9 7 -17 60 -51 106 -26 35 -62
42 -83 17z"/>
</g>
</svg>
